<?xml version="1.0" encoding="UTF-8"?>
<svg version="1.1" xmlns="http://www.w3.org/2000/svg" width="2612" height="1681">
<path d="M0 0 C1.46638916 0.39590332 1.46638916 0.39590332 2.96240234 0.79980469 C28.0344922 7.66112207 52.25470352 16.44038281 76 27 C76.86173828 27.38124023 77.72347656 27.76248047 78.61132812 28.15527344 C105.22542289 40.03237347 130.71746419 55.48606183 154 73 C155.04027344 73.76957031 156.08054687 74.53914062 157.15234375 75.33203125 C163.98473626 80.602221 168.25891161 84.81238124 169.5 93.5 C168.39321024 101.24752833 164.2252341 106.17129798 159.26147461 111.95288086 C155.56674547 116.2630673 152.10893565 120.72073928 148.6875 125.25 C144.39275756 130.92088138 140.0133231 136.50149383 135.5 142 C131.05374864 147.41863912 126.73323192 152.91338099 122.5 158.5 C117.68251733 164.85742018 112.72862676 171.08157255 107.67285156 177.25073242 C104.29172696 181.3846454 100.98822012 185.56587283 97.75 189.8125 C96.16689609 191.8751761 94.58356738 193.93767969 93 196 C92.59233398 196.53625 92.18466797 197.0725 91.76464844 197.625 C90.56386376 199.19707373 89.34472037 200.75507203 88.125 202.3125 C87.42632813 203.21613281 86.72765625 204.11976563 86.0078125 205.05078125 C84 207 84 207 80 207 C77.90625 205.33984375 77.90625 205.33984375 75.5 202.9375 C61.95882414 190.01656681 46.06106903 179.5068084 30 170 C29.2172168 169.5364209 28.43443359 169.0728418 27.62792969 168.59521484 C-3.19931496 150.5569233 -36.92850858 138.50690469 -72 132 C-72.90008789 131.82355957 -73.80017578 131.64711914 -74.72753906 131.46533203 C-133.07800548 120.37764453 -196.27125945 134.40969227 -245.53125 166.8984375 C-252.73230167 171.80399822 -259.43830344 177.27648916 -266 183 C-266.57975586 183.5053125 -267.15951172 184.010625 -267.75683594 184.53125 C-287.69325824 202.07987158 -303.55190115 222.52448262 -316 246 C-316.39525879 246.74121094 -316.79051758 247.48242188 -317.19775391 248.24609375 C-333.88415578 280.0669992 -341.45500633 315.58401625 -341.375 351.3125 C-341.37445618 352.23108795 -341.37391235 353.1496759 -341.37335205 354.09609985 C-341.33106108 369.70163838 -340.3048937 384.70040457 -337 400 C-336.78569336 400.99435059 -336.57138672 401.98870117 -336.35058594 403.01318359 C-327.98179168 440.41694306 -310.53410325 475.59900767 -284.23046875 503.6171875 C-282.24711076 505.73601127 -280.3676006 507.90477551 -278.5 510.125 C-243.00258774 550.61167988 -184.78131746 572.92337156 -132.1875 576.71875 C-78.36584247 579.90878745 -25.61303902 563.8995788 22.07421875 539.85107422 C24 539 24 539 26 539 C26 506.33 26 473.66 26 440 C-0.45976301 440.15767008 -0.45976301 440.15767008 -26.91918945 440.36035156 C-32.10192871 440.37841797 -32.10192871 440.37841797 -34.54801941 440.3817749 C-36.21306163 440.38781351 -37.87808933 440.40165812 -39.54301453 440.42230225 C-72.81073572 440.81324069 -101.70955475 428.63958462 -125.6875 405.75 C-150.81807624 379.58766989 -159.18593148 347.87911818 -159.04296875 312.4140625 C-159.03951338 310.91512115 -159.03637772 309.41617903 -159.03356934 307.91723633 C-159.02606439 304.27814126 -159.01423676 300.6390757 -159 297 C-118.84561129 296.93135579 -78.69123021 296.87848235 -38.53679457 296.84680401 C-33.79780435 296.84305182 -29.05881426 296.83916886 -24.31982422 296.83520508 C-23.37636381 296.83441815 -22.43290341 296.83363122 -21.46085329 296.83282044 C-6.17802019 296.8197612 9.10477911 296.79610451 24.38759215 296.76854161 C40.06541106 296.74050182 55.74321224 296.72382676 71.4210552 296.71773452 C81.09763195 296.71361511 90.77411316 296.7005973 100.45066051 296.6762506 C107.08333291 296.66041102 113.71595581 296.65559561 120.34864576 296.65949587 C124.17720841 296.66142019 128.00560392 296.65843934 131.83413696 296.64238358 C135.98349807 296.62510926 140.13250207 296.63102666 144.28189087 296.63923645 C146.09998479 296.62612866 146.09998479 296.62612866 147.95480788 296.61275607 C158.19236181 296.66771288 158.19236181 296.66771288 163 300 C167.46482836 304.71287438 169.23573083 309.0939108 169.29637527 315.54804325 C169.31899929 317.21345522 169.31899929 317.21345522 169.34208035 318.91251189 C169.34853283 320.1270838 169.3549853 321.34165571 169.3616333 322.59303284 C169.38324685 324.53459531 169.38324685 324.53459531 169.40529704 326.51538128 C169.44470358 330.10657491 169.47150895 333.69776788 169.49599409 337.28909028 C169.51856611 340.36989519 169.54841976 343.45061294 169.57824031 346.53135491 C169.8600222 375.74489814 169.99104931 404.96041884 170.09688187 434.17506504 C170.11089911 437.97746942 170.12515317 441.77987281 170.13964844 445.58227539 C170.14323902 446.52731566 170.14682961 447.47235592 170.150529 448.44603377 C170.21064765 463.75104127 170.34017339 479.05467476 170.49702135 494.35896374 C170.65680367 510.07988392 170.74826324 525.80009302 170.77493358 541.52181 C170.7917335 550.34621037 170.83908052 559.16817413 170.96427155 567.99176216 C171.07085351 575.50770424 171.11613182 583.02086743 171.08205119 590.53754307 C171.06658316 594.37115344 171.07984083 598.198796 171.17261505 602.03144455 C171.68645289 624.39127972 171.68645289 624.39127972 167.22038174 630.39056659 C163.01684924 634.30701817 158.34934733 636.86025967 153.08766603 639.09275806 C150.41833038 640.25277753 148.054912 641.75825443 145.640625 643.375 C144.18070922 644.25603639 142.71722285 645.13118683 141.25 646 C140.43184814 646.48654053 139.61369629 646.97308105 138.77075195 647.47436523 C66.37767366 690.18388317 -22.26865247 720.38846251 -110.2109375 721.203125 C-111.32974304 721.21013931 -112.44854858 721.21715363 -113.60125732 721.22438049 C-117.19254639 721.24177997 -120.78367033 721.24823306 -124.375 721.25 C-125.60442322 721.25067474 -126.83384644 721.25134949 -128.1005249 721.25204468 C-146.92091339 721.2356418 -165.35106939 720.72976711 -184 718 C-185.76077881 717.75056641 -185.76077881 717.75056641 -187.55712891 717.49609375 C-255.73282196 707.56089627 -321.01933874 681.09746343 -375 638 C-375.9178125 637.27554688 -376.835625 636.55109375 -377.78125 635.8046875 C-388.75898047 627.003576 -398.81245504 617.28379502 -408.79208374 607.38314819 C-410.20743571 605.97970612 -411.6267301 604.58024342 -413.04614258 603.1809082 C-419.13599146 597.09871332 -424.64676676 590.73413759 -430 584 C-431.00049437 582.79143821 -432.00392667 581.58529564 -433.01171875 580.3828125 C-446.14867827 564.48865397 -457.03431092 547.01708642 -467 529 C-467.63349365 527.86860596 -467.63349365 527.86860596 -468.27978516 526.71435547 C-492.40028461 483.43089294 -506.22110319 433.28405545 -510 384 C-510.05639648 383.31099609 -510.11279297 382.62199219 -510.17089844 381.91210938 C-517.64131468 287.58152795 -488.65970966 192.5058692 -427.22094727 120.28540039 C-422.00255905 114.24318219 -416.62115063 108.34874947 -411.1875 102.5 C-410.2905542 101.53018188 -410.2905542 101.53018188 -409.37548828 100.54077148 C-405.72510211 96.65424309 -401.90972949 93.08437787 -397.86401367 89.61230469 C-395.35648651 87.44338401 -392.96831192 85.1556954 -390.5625 82.875 C-383.15859389 76.00501208 -375.12791643 69.98030361 -367 64 C-365.96915283 63.23985596 -365.96915283 63.23985596 -364.91748047 62.46435547 C-285.93856718 4.59171345 -187.20513522 -19.91428017 0 0 Z " fill="#FFFFFF" transform="translate(1971,488)"/>
<path d="M0 0 C1.21880859 0.12358887 2.43761719 0.24717773 3.69335938 0.37451172 C74.49594403 7.77594765 142.72807924 29.20239524 205.0625 63.5625 C206.10937988 64.13395752 207.15625977 64.70541504 208.23486328 65.29418945 C213.83165412 68.44571239 218.04851499 71.09702998 221 77 C222.37847273 85.7801024 219.02555652 92.38638696 215.1875 100.0625 C214.55878943 101.35731041 213.93239437 102.65324723 213.30810547 103.95019531 C212.29990352 106.04363946 211.29006541 108.13615472 210.27325439 110.22543335 C206.34195707 118.30708145 202.59076042 126.47064815 198.83114624 134.63317871 C192.08545579 149.26844083 185.26195645 163.86627805 178.37158203 178.43392944 C173.96912629 187.74262963 169.6347686 197.07627647 165.56005859 206.53442383 C163.21256473 211.89371763 163.21256473 211.89371763 161 213 C158.87133789 212.07885742 158.87133789 212.07885742 156.22265625 210.60546875 C155.24482178 210.06736572 154.2669873 209.5292627 153.25952148 208.97485352 C151.67699585 208.09011353 151.67699585 208.09011353 150.0625 207.1875 C147.84667629 205.97076735 145.63052734 204.75462684 143.4140625 203.5390625 C141.27581148 202.35979227 139.1377727 201.1801371 137 200 C68.00450036 161.92140266 -29.38107132 122.45082623 -108.22607422 144.640625 C-124.10799887 149.42244453 -139.32967909 157.2140063 -148 172 C-155.09850448 186.60208667 -156.07568257 201.46533517 -151 217 C-140.98987403 242.41031976 -117.29210833 255.28077077 -93.625 265.875 C-65.13586229 278.18616944 -34.71015395 286.22818704 -5 295 C126.32705185 333.79669639 126.32705185 333.79669639 177 381 C177.78890625 381.72316406 178.5778125 382.44632813 179.390625 383.19140625 C207.7342531 410.209284 223.11219886 447.66439274 228 486 C228.14139404 487.03797729 228.14139404 487.03797729 228.28564453 488.09692383 C229.32133589 496.7557853 229.24374606 505.47957968 229.25 514.1875 C229.25101212 515.4544722 229.25101212 515.4544722 229.25204468 516.74703979 C229.23480747 530.3604098 228.61331581 543.6041843 226 557 C225.75056641 558.30130859 225.75056641 558.30130859 225.49609375 559.62890625 C215.47987024 610.0068008 185.45036483 653.64259823 142.99365234 682.35693359 C138.41452339 685.38599525 133.73102306 688.21611026 129 691 C128.32984863 691.40283203 127.65969727 691.80566406 126.96923828 692.22070312 C92.71109403 712.725222 53.57576776 723.67687572 14.375 729.75 C12.46714722 730.04825684 12.46714722 730.04825684 10.52075195 730.35253906 C-10.74216874 733.47876887 -31.96488723 734.38093482 -53.4375 734.3125 C-54.66256256 734.31034485 -55.88762512 734.3081897 -57.14981079 734.30596924 C-76.60562077 734.25124122 -95.70806119 733.67097179 -115 731 C-115.72155273 730.90054077 -116.44310547 730.80108154 -117.18652344 730.6986084 C-209.87927387 717.81081975 -302.66923393 681.7915219 -374 620 C-372.41331694 615.73515763 -369.19511966 613.22468149 -365.8125 610.375 C-365.18593506 609.84648438 -364.55937012 609.31796875 -363.91381836 608.7734375 C-328.14981321 579.1326433 -279.16532413 563.22751729 -233 562 C-232.32050293 561.97953613 -231.64100586 561.95907227 -230.94091797 561.93798828 C-201.92048984 561.16775977 -175.53159838 566.66468332 -148.12954712 575.74359131 C-96.5251641 592.83955377 -32.99287233 604.42353528 18.27734375 579.94140625 C33.6195485 572.17677811 44.72755931 561.21655399 51 545 C56.00089803 528.40251495 54.7533911 512.50678219 47 497 C40.0086762 484.13317465 30.24397977 475.72130697 18 468 C17.43522949 467.63938477 16.87045898 467.27876953 16.28857422 466.90722656 C-0.73262248 456.21313008 -20.05119375 449.41642566 -39.10546875 443.3046875 C-39.7565435 443.09512358 -40.40761826 442.88555965 -41.07842255 442.66964531 C-58.17148943 437.18179319 -75.45940616 432.38195316 -92.75 427.5625 C-111.55435991 422.31931467 -130.32070231 417.00764751 -148.9453125 411.15234375 C-150.01650455 410.81638278 -150.01650455 410.81638278 -151.10933685 410.47363472 C-192.55643882 397.44112194 -235.84665422 380.97073444 -269 352 C-270.18142578 350.98099609 -270.18142578 350.98099609 -271.38671875 349.94140625 C-273.9665392 347.66938227 -276.49024034 345.34916492 -279 343 C-280.423125 341.67548828 -280.423125 341.67548828 -281.875 340.32421875 C-304.53251088 318.75483288 -318.88987804 290.23672919 -326 260 C-326.21172852 259.12214844 -326.42345703 258.24429687 -326.64160156 257.33984375 C-330.03620225 242.55638465 -330.38947237 227.84673752 -330.4375 212.75 C-330.44376404 211.82967987 -330.45002808 210.90935974 -330.45648193 209.96115112 C-330.68081604 157.8046343 -310.81894269 111.45171501 -275 74 C-274.36320313 73.32195312 -273.72640625 72.64390625 -273.0703125 71.9453125 C-258.33537475 56.646358 -239.7307146 44.7360516 -221 35 C-220.33291016 34.64599121 -219.66582031 34.29198242 -218.97851562 33.92724609 C-192.03959063 19.64693535 -162.84177376 10.80095945 -133 5 C-131.99598145 4.80422363 -130.99196289 4.60844727 -129.95751953 4.40673828 C-87.53704285 -3.62292709 -42.87467866 -4.48100796 0 0 Z " fill="#FFFFFF" transform="translate(846,473)"/>
<path d="M0 0 C0.05138924 53.45949643 0.09914662 106.9189951 0.12702942 160.37850952 C0.12744359 161.17056424 0.12785776 161.96261896 0.12828448 162.77867533 C0.13726459 179.99490432 0.14557494 197.21113356 0.15319599 214.42736319 C0.15693778 222.87100911 0.16082747 231.31465496 0.16479492 239.75830078 C0.1651872 240.59851536 0.16557948 241.43872994 0.16598364 242.30440557 C0.17875254 269.50566097 0.20127513 296.7068976 0.22889166 323.90814164 C0.25723518 351.8764368 0.27566692 379.84472157 0.28174497 407.81303084 C0.28260935 411.76937018 0.28358626 415.7257095 0.28463173 419.6820488 C0.28493513 420.84996914 0.28493513 420.84996914 0.28524467 422.04148384 C0.28878067 434.54155004 0.30267006 447.04158401 0.3204961 459.5416371 C0.33822289 472.12867528 0.34488773 484.71568173 0.34050413 497.30273195 C0.33843259 504.11444217 0.3414684 510.92605284 0.35761642 517.73774719 C0.3723226 523.98720946 0.37288342 530.23651529 0.36269668 536.48598509 C0.36143953 538.73400948 0.36515358 540.98204404 0.37464955 543.23004873 C0.44631497 561.25981659 -0.37512403 579.60413903 -5.8125 596.9375 C-6.07184326 597.79827148 -6.33118652 598.65904297 -6.59838867 599.54589844 C-19.41031661 641.12949046 -47.28120784 676.27202503 -85.8359375 696.87109375 C-103.8880396 706.22271665 -121.91822077 711.99613553 -142 715 C-142.86109375 715.13277344 -143.7221875 715.26554687 -144.609375 715.40234375 C-149.00282977 715.98760324 -153.33474719 716.03341245 -157.765625 716.01953125 C-158.93383789 716.01671143 -160.10205078 716.0138916 -161.30566406 716.01098633 C-162.63936035 716.0055481 -162.63936035 716.0055481 -164 716 C-164.05138007 662.02147579 -164.09913866 608.04294936 -164.12702942 554.06440735 C-164.12744359 553.26488977 -164.12785776 552.46537219 -164.12828448 551.64162681 C-164.13726422 534.263928 -164.14557462 516.88622893 -164.15319599 499.50852947 C-164.15693784 490.98591086 -164.16082752 482.46329233 -164.16479492 473.94067383 C-164.1651872 473.09259276 -164.16557948 472.24451169 -164.16598364 471.37073119 C-164.1787566 443.9059975 -164.20128225 416.44128239 -164.22889166 388.97655995 C-164.25722371 360.74155576 -164.27566427 332.50656185 -164.28174497 304.27154369 C-164.28260937 300.2791056 -164.28358628 296.28666755 -164.28463173 292.29422951 C-164.284834 291.50849792 -164.28503627 290.72276633 -164.28524467 289.9132247 C-164.28878312 277.28982822 -164.30267919 264.6664636 -164.3204961 252.04308008 C-164.33820647 239.33735187 -164.3448918 226.63165508 -164.34050413 213.92591497 C-164.33843009 207.04774709 -164.34109216 200.16966414 -164.35761642 193.29151344 C-164.37229036 186.98484545 -164.3729039 180.67833259 -164.36269668 174.37165723 C-164.36143643 172.09946029 -164.36517805 169.82725339 -164.37464955 167.55507585 C-164.44055482 150.75728011 -163.50020905 134.2588373 -158.375 118.125 C-157.99649902 116.90828613 -157.99649902 116.90828613 -157.61035156 115.66699219 C-143.98932047 73.37863049 -115.04586553 38.05107734 -75.44165039 17.52099609 C-51.7309527 5.74823373 -26.42287933 -0.05157238 0 0 Z " fill="#FEFEFE" transform="translate(1353,481)"/>
<path d="M0 0 C0 57.42 0 114.84 0 174 C-9.9 174.495 -9.9 174.495 -20 175 C-24.32125387 175.62085559 -28.44469985 176.27033056 -32.6875 177.1875 C-33.74146973 177.40889648 -34.79543945 177.63029297 -35.88134766 177.85839844 C-44.90957336 179.83345193 -53.48989934 182.40317299 -62 186 C-62.74910645 186.31420898 -63.49821289 186.62841797 -64.27001953 186.95214844 C-105.63708094 204.64296791 -136.23334384 237.74043183 -152.90673828 279.2578125 C-158.70457847 294.3890058 -162.24125716 310.8008403 -163 327 C-163.33 327 -163.66 327 -164 327 C-164.07031024 303.8590806 -164.12309549 280.71817901 -164.15543652 257.57717419 C-164.17085705 246.83062847 -164.19185373 236.0841494 -164.22631836 225.33764648 C-164.25636895 215.96296827 -164.27560991 206.58833838 -164.28226548 197.21361333 C-164.2861514 192.25706038 -164.29518158 187.30064555 -164.31719017 182.34413719 C-164.33780373 177.6631428 -164.3437845 172.98234125 -164.33932304 168.30130577 C-164.34013728 166.59835252 -164.34595294 164.89539169 -164.35761642 163.19247818 C-164.45667962 147.96034599 -163.00960005 132.71443088 -158.375 118.125 C-157.99649902 116.90828613 -157.99649902 116.90828613 -157.61035156 115.66699219 C-143.98932047 73.37863049 -115.04586553 38.05107734 -75.44165039 17.52099609 C-51.69465643 5.73021201 -26.45571077 0 0 0 Z " fill="#3EB049" transform="translate(1353,481)"/>
</svg>
