<?xml version="1.0" encoding="UTF-8"?>
<svg version="1.1" xmlns="http://www.w3.org/2000/svg" width="2481" height="1754">
<path d="M0 0 C1.19905472 0.00090637 1.19905472 0.00090637 2.42233276 0.00183105 C83.5289229 0.16669615 166.56734799 23.47246113 235.125 67.1875 C235.71120117 67.56068359 236.29740234 67.93386719 236.90136719 68.31835938 C240.35957173 70.53777301 243.75304229 72.83958417 247.125 75.1875 C247.95523682 75.76298584 247.95523682 75.76298584 248.80224609 76.35009766 C252.95426289 79.23671611 257.05347886 82.18860921 261.125 85.1875 C262.18976562 85.96480469 263.25453125 86.74210938 264.3515625 87.54296875 C273.39823748 94.47716158 273.39823748 94.47716158 274.88671875 100.2265625 C275.87484521 108.35835734 272.96101602 112.96468527 268.125 119.1875 C264.93092687 123.20022213 261.68538283 127.17003959 258.4296875 131.1328125 C255.55318904 134.64375978 252.7528299 138.20407586 250 141.8125 C243.35813189 150.51120468 236.60117249 159.11638023 229.74194336 167.64477539 C224.97190932 173.57629047 220.28947583 179.56202463 215.6875 185.625 C211.24877469 191.46363099 206.7388367 197.23603594 202.125 202.9375 C201.33331421 203.92061157 201.33331421 203.92061157 200.52563477 204.92358398 C197.56540038 208.5583861 194.50165549 211.93498626 191.125 215.1875 C190.444375 214.53265625 189.76375 213.8778125 189.0625 213.203125 C138.06743229 164.89530836 64.73182069 136.42304145 -5.39453125 137.90234375 C-63.72531625 140.01047283 -118.04487354 163.43844733 -158.875 205.1875 C-162.04294712 208.73746427 -164.9754904 212.41756108 -167.875 216.1875 C-168.51308594 216.94804688 -169.15117188 217.70859375 -169.80859375 218.4921875 C-205.47832603 261.12361804 -219.65734569 319.21587056 -215.1875 373.875 C-210.86917734 418.96817721 -193.50271605 460.94183818 -163.875 495.1875 C-162.63556641 496.62222656 -162.63556641 496.62222656 -161.37109375 498.0859375 C-159.24305354 500.49154817 -157.07704763 502.84962513 -154.875 505.1875 C-154.19566406 505.9196875 -153.51632812 506.651875 -152.81640625 507.40625 C-146.41359559 514.07927102 -139.23116979 519.62291694 -131.875 525.1875 C-130.94558594 525.90035156 -130.01617188 526.61320312 -129.05859375 527.34765625 C-83.63024105 561.40199516 -24.24791315 575.03696898 31.6640625 567.2265625 C55.94161155 563.50010319 79.38338003 556.74234911 102.25 547.875 C103.85572876 547.25492065 103.85572876 547.25492065 105.49389648 546.62231445 C116.33431549 542.31095924 126.51850252 537.23821309 137.125 532.1875 C137.455 501.1675 137.785 470.1475 138.125 438.1875 C114.25306869 438.30572056 114.25306869 438.30572056 90.38134766 438.45776367 C85.7019043 438.47131348 85.7019043 438.47131348 83.49227905 438.47383118 C81.9905427 438.47835542 80.48881528 438.48872807 78.9871521 438.50422668 C64.42785293 438.64661662 49.76532278 437.40614859 35.9375 432.5 C35.20321777 432.24581299 34.46893555 431.99162598 33.71240234 431.72973633 C21.21577791 427.22582886 10.39395673 420.59992218 0.125 412.1875 C-0.72578125 411.50171875 -1.5765625 410.8159375 -2.453125 410.109375 C-23.90876858 391.89231913 -36.54340942 364.83012215 -39.875 337.1875 C-39.99858021 334.26039694 -39.99220979 331.33942977 -39.97265625 328.41015625 C-39.97053383 327.19313271 -39.97053383 327.19313271 -39.96836853 325.95152283 C-39.96281357 323.38430953 -39.95026967 320.81718652 -39.9375 318.25 C-39.93247917 316.49935023 -39.92791729 314.74869907 -39.92382812 312.99804688 C-39.91285893 308.7278303 -39.89562582 304.45768041 -39.875 300.1875 C-1.24935066 300.09597124 37.37628237 300.02547489 76.00201819 299.98323868 C80.56075319 299.97823578 85.11948798 299.97305849 89.67822266 299.96777344 C91.0395822 299.96619957 91.0395822 299.96619957 92.42844395 299.96459392 C107.12930491 299.94718234 121.83010338 299.9156405 136.53092726 299.87888882 C151.61209783 299.84150034 166.69323564 299.81926858 181.77445066 299.81114602 C191.08254916 299.8056539 200.39047107 299.78829923 209.69851522 299.75583413 C216.07889925 299.73471208 222.4591918 299.72829471 228.83960827 299.73349449 C232.52240735 299.73605989 236.20489755 299.73209054 239.88764191 299.7106781 C243.87936183 299.68763851 247.87067803 299.69553736 251.86245728 299.70648193 C253.02782851 299.69483057 254.19319974 299.6831792 255.39388525 299.67117476 C261.62606444 299.71752302 265.40436763 299.97472082 270.125 304.1875 C274.67482491 308.98326139 275.23239628 313.0832573 275.29832745 319.51690006 C275.31796489 321.10916073 275.31796489 321.10916073 275.33799905 322.73358828 C275.34736436 323.89368692 275.35672967 325.05378555 275.36637878 326.2490387 C275.37993339 327.48624395 275.393488 328.7234492 275.40745336 329.99814552 C275.44368297 333.42974472 275.47542501 336.86132844 275.50492847 340.29298842 C275.53093853 343.23709279 275.56043763 346.18115884 275.58973893 349.12523199 C275.86578411 377.04493288 276.01757594 404.96569713 276.13975048 432.88644505 C276.15593684 436.52040813 276.17243592 440.15436965 276.18920898 443.78833008 C276.19544311 445.14308756 276.19544311 445.14308756 276.20180319 446.52521389 C276.27102833 461.15124191 276.40676239 475.7759157 276.56788584 490.40118802 C276.73203118 505.42599418 276.8276766 520.45009516 276.85926324 535.47577137 C276.88081717 544.73880253 276.95487006 553.99830305 277.0968499 563.26028388 C277.1890501 569.61350911 277.21427329 575.96483765 277.18753799 582.31866599 C277.17405472 585.9822895 277.18927381 589.63964497 277.2841568 593.30220032 C277.81006488 614.65937635 277.81006488 614.65937635 273.34604859 620.52500796 C269.1273379 624.4070841 264.44498138 626.98425259 259.21292269 629.25954998 C256.55430315 630.44113877 254.18189539 631.94977926 251.765625 633.5625 C250.3057522 634.44360761 248.84226557 635.31875898 247.375 636.1875 C246.55612305 636.67404053 245.73724609 637.16058105 244.89355469 637.66186523 C178.11129835 677.03509677 102.25544096 700.31381256 25.125 707.1875 C24.37331543 707.25807617 23.62163086 707.32865234 22.84716797 707.40136719 C-75.27054638 716.28483929 -177.94368113 686.05863203 -253.875 623.1875 C-256.41879107 620.97841828 -258.92360608 618.73896929 -261.3984375 616.453125 C-263.43965797 614.58576242 -265.51032478 612.77441797 -267.60546875 610.96875 C-272.18721693 606.96853962 -276.51502161 602.73955797 -280.8125 598.4375 C-281.60591797 597.64327637 -282.39933594 596.84905273 -283.21679688 596.03076172 C-288.07432496 591.12225957 -292.64629594 586.17058664 -296.89453125 580.72265625 C-299.03289936 577.98537637 -301.29216569 575.37861573 -303.5625 572.75 C-314.29909779 559.87277213 -323.62945715 545.77131433 -331.875 531.1875 C-332.55876709 529.99398926 -332.55876709 529.99398926 -333.25634766 528.77636719 C-378.94022022 448.72798686 -391.14652529 349.78731154 -366.95214844 260.79296875 C-348.83566929 196.87847262 -313.65557492 137.62836157 -262.875 94.1875 C-261.97394531 93.39730469 -261.07289062 92.60710937 -260.14453125 91.79296875 C-225.78798983 61.89729945 -185.44354805 39.90029288 -142.875 24.1875 C-141.95928223 23.84734863 -141.04356445 23.50719727 -140.10009766 23.15673828 C-95.58836193 6.84742006 -47.24583932 -0.06699162 0 0 Z " fill="#0E0F6B" transform="translate(1766.875,523.8125)"/>
<path d="M0 0 C0.82082062 0.00060425 1.64164124 0.0012085 2.48733521 0.00183105 C87.85477532 0.17067366 174.21862538 22.08554197 248.4375 64.5625 C249.11466064 64.94301514 249.79182129 65.32353027 250.48950195 65.71557617 C255.40300521 68.61714179 259.14813123 71.98376247 261.75 77.1875 C262.3267588 83.35258388 260.72746728 87.34371723 258.125 92.75 C257.72458496 93.61020752 257.32416992 94.47041504 256.91162109 95.35668945 C256.01785483 97.27274068 255.11794673 99.18593536 254.21289062 101.09667969 C252.69645487 104.30063106 251.19785194 107.51242955 249.703125 110.7265625 C247.70377132 115.023569 245.70039307 119.31861737 243.69108582 123.61097717 C239.27838009 133.03881683 234.90236327 142.4834735 230.53060913 151.93035889 C221.99412844 170.3763431 213.39970925 188.79434982 204.75 207.1875 C198.16610927 203.94969498 191.65199225 200.63414306 185.24731445 197.05444336 C118.33570446 159.68987717 23.71016431 120.11934779 -54.26196289 140.95019531 C-69.50336614 145.38554934 -85.71988275 153.50930089 -93.7265625 167.828125 C-100.27243797 181.53235551 -101.33619511 195.73103863 -96.25 210.1875 C-89.91318351 226.09272886 -79.77625076 236.26114136 -65.25 245.1875 C-64.68812988 245.54376465 -64.12625977 245.9000293 -63.54736328 246.26708984 C-31.27544693 266.55879691 8.81649404 275.56022459 45.05639648 286.03735352 C79.36576183 295.96307414 113.67015542 306.21863984 146.23535156 321.04541016 C148.54284207 322.0934141 150.85926205 323.11777682 153.1796875 324.13671875 C177.84274081 335.13779548 200.44901727 350.321469 219.75 369.1875 C220.90628906 370.25097656 220.90628906 370.25097656 222.0859375 371.3359375 C234.0507735 382.60966384 243.43896769 396.53761033 250.75 411.1875 C251.27352051 412.23260742 251.27352051 412.23260742 251.80761719 413.29882812 C262.7716773 435.59073282 268.81745927 460.65227761 268.953125 485.515625 C268.96013931 486.3787027 268.96715363 487.2417804 268.97438049 488.13101196 C268.99178654 490.89989497 268.9982323 493.6685643 269 496.4375 C269.00101212 497.85461273 269.00101212 497.85461273 269.00204468 499.300354 C268.98668198 512.81234762 268.69768508 525.94736135 265.75 539.1875 C265.49259033 540.40856445 265.49259033 540.40856445 265.22998047 541.65429688 C259.51406454 568.31835508 248.65910661 593.66938941 231.75 615.1875 C230.74839844 616.51974609 230.74839844 616.51974609 229.7265625 617.87890625 C218.98761866 631.68318081 205.97558584 644.03782933 191.75 654.1875 C191.16573242 654.60547852 190.58146484 655.02345703 189.97949219 655.45410156 C114.76543704 708.63039774 14.07489261 716.23090441 -83.89941406 701.59759521 C-106.39490172 697.67291767 -128.5413293 692.27441313 -150.25 685.1875 C-151.41934082 684.80867676 -152.58868164 684.42985352 -153.79345703 684.03955078 C-205.15450875 667.25835319 -254.00014631 642.9203586 -296.59375 609.48388672 C-298.26939127 608.17232199 -299.96174464 606.88471544 -301.65625 605.59765625 C-302.6771875 604.80230469 -303.698125 604.00695313 -304.75 603.1875 C-305.6265625 602.506875 -306.503125 601.82625 -307.40625 601.125 C-309.25 599.1875 -309.25 599.1875 -309.25 595.1875 C-286.66711755 568.91761634 -246.94005925 554.48897024 -214.25 547.3125 C-213.38044678 547.12155762 -212.51089355 546.93061523 -211.61499023 546.73388672 C-197.47008242 543.82065111 -183.60058003 542.83657513 -169.19726562 542.87182617 C-166.51651032 542.87498057 -163.83686973 542.8514376 -161.15625 542.82617188 C-145.64346916 542.76867244 -130.12819848 544.17668316 -115.25 548.8125 C-114.40791992 549.06193359 -113.56583984 549.31136719 -112.69824219 549.56835938 C-106.45390872 551.44233351 -100.26558384 553.48490311 -94.07177734 555.51831055 C-43.12064424 572.19670948 17.1508916 582.67375444 67.65234375 558.81640625 C82.04940595 551.36547223 91.82003703 541.34378771 97.75 526.1875 C102.60054288 509.08757891 101.14542837 492.97500066 92.75 477.1875 C66.32989846 434.31080979 -1.62894392 423.93955744 -46.31640625 411.55078125 C-85.13144538 400.77635536 -123.77512284 389.52360175 -160.25 372.1875 C-161.15878906 371.75663086 -162.06757812 371.32576172 -163.00390625 370.88183594 C-179.80170216 362.78427249 -196.19588746 352.47510671 -210.25 340.1875 C-211.06082031 339.48496094 -211.87164063 338.78242187 -212.70703125 338.05859375 C-215.25822013 335.80523952 -217.76073734 333.50899104 -220.25 331.1875 C-221.05179688 330.45144531 -221.85359375 329.71539063 -222.6796875 328.95703125 C-234.64446452 317.54653303 -243.83623002 303.89697524 -251.25 289.1875 C-251.7756958 288.14819336 -251.7756958 288.14819336 -252.31201172 287.08789062 C-263.57012156 264.39519526 -268.36105082 239.38365335 -269.25 214.1875 C-269.29125 213.04925781 -269.3325 211.91101563 -269.375 210.73828125 C-270.29768846 158.31804286 -251.71209642 110.82994079 -215.49291992 73.14697266 C-160.49638209 17.16287062 -75.69834079 -0.1045223 0 0 Z " fill="#0E0F6B" transform="translate(749.25,521.8125)"/>
<path d="M0 0 C1.75633759 0.00401825 1.75633759 0.00401825 3.54815674 0.00811768 C4.88701935 0.013284 4.88701935 0.013284 6.25292969 0.01855469 C6.30430896 51.91378106 6.35206766 103.80900933 6.37995911 155.70425415 C6.38037328 156.47289556 6.38078745 157.24153697 6.38121417 158.03347054 C6.39019388 174.74000691 6.39850428 191.44654356 6.40612568 208.1530806 C6.40986753 216.34651994 6.41375721 224.53995921 6.41772461 232.73339844 C6.41811689 233.54872373 6.41850916 234.36404902 6.41891333 235.20408113 C6.43168664 261.60876519 6.45421255 288.01342993 6.48182135 314.41810229 C6.51015241 341.5629775 6.52859373 368.70784203 6.53467466 395.85273178 C6.53553906 399.69089007 6.53651597 403.52904833 6.53756142 407.36720657 C6.53786482 408.50026112 6.53786482 408.50026112 6.53817435 409.65620566 C6.54171302 421.79256767 6.55560966 433.92889655 6.57342579 446.06524508 C6.59113475 458.28030539 6.59782184 470.49533301 6.59343382 482.71040569 C6.59135957 489.32313518 6.59442641 495.93578802 6.61054611 502.54850578 C6.62521727 508.61148442 6.62583536 514.67430167 6.61562637 520.73728795 C6.61436585 522.92198463 6.61810985 525.10669165 6.62757923 527.29136817 C6.69491305 543.79567049 5.29174057 559.47987568 0.62792969 575.39355469 C0.3755957 576.25875732 0.12326172 577.12395996 -0.13671875 578.01538086 C-6.35647941 598.42189049 -16.6320954 617.03263511 -30.74707031 633.01855469 C-31.57722656 633.98148438 -32.40738281 634.94441406 -33.26269531 635.93652344 C-58.29912628 664.50914725 -92.45597164 681.28804182 -129.74707031 687.01855469 C-130.58238281 687.15003906 -131.41769531 687.28152344 -132.27832031 687.41699219 C-136.69797992 688.00948279 -141.0592671 688.05205877 -145.51660156 688.03808594 C-146.68425049 688.03526611 -147.85189941 688.03244629 -149.05493164 688.02954102 C-150.38754028 688.02410278 -150.38754028 688.02410278 -151.74707031 688.01855469 C-151.7813322 637.41916201 -151.81317013 586.81976852 -151.83175659 536.22036743 C-151.83203271 535.47060484 -151.83230882 534.72084225 -151.8325933 533.94835958 C-151.83858014 517.6511264 -151.84412036 501.35389309 -151.84920097 485.0566596 C-151.85169548 477.06365195 -151.85428861 469.07064433 -151.85693359 461.07763672 C-151.85719511 460.28226742 -151.85745663 459.48689812 -151.85772607 458.66742672 C-151.86623761 432.92123093 -151.88125188 407.17504395 -151.89966475 381.4288535 C-151.91856342 354.9551052 -151.93084895 328.48136178 -151.93490029 302.00760686 C-151.93547654 298.26208646 -151.93612781 294.51656607 -151.9368248 290.77104568 C-151.93695964 290.03392663 -151.93709449 289.29680758 -151.93723342 288.53735159 C-151.93959012 276.70677326 -151.94884797 264.87621007 -151.96073438 253.0456379 C-151.97255651 241.13072768 -151.97699441 229.21583235 -151.97407307 217.30091648 C-151.97279618 210.85377533 -151.97470912 204.40667836 -151.98548126 197.95954514 C-151.99529376 192.04318533 -151.99565391 186.12689895 -151.9888681 180.2105356 C-151.9880308 178.08364264 -151.99049961 175.95674489 -151.99683668 173.82986121 C-152.10421177 135.52748962 -146.35133095 97.50549977 -122.74707031 66.01855469 C-122.35471191 65.48246582 -121.96235352 64.94637695 -121.55810547 64.39404297 C-96.41324767 30.16936824 -59.56280827 8.35042085 -17.80175781 1.33105469 C-11.81627577 0.44613743 -6.05109658 -0.01795578 0 0 Z " fill="#0E0F6A" transform="translate(1278.7470703125,531.9814453125)"/>
<path d="M0 0 C0 54.78 0 109.56 0 166 C-7.26 166.66 -14.52 167.32 -22 168 C-52.4752636 173.29211164 -79.4463555 184.69639327 -103 205 C-103.49709473 205.42474609 -103.99418945 205.84949219 -104.50634766 206.28710938 C-138.83025673 235.86553725 -152.61243491 276.16984232 -157 320 C-157.33 320 -157.66 320 -158 320 C-158.04693446 298.7362545 -158.08209312 277.47251767 -158.10362434 256.2087307 C-158.11389195 246.33330925 -158.12786478 236.45792018 -158.15087891 226.58251953 C-158.17095227 217.96481859 -158.18374915 209.34714112 -158.18817699 200.72941744 C-158.19076102 196.17577684 -158.19673771 191.62220332 -158.21146011 187.06858444 C-158.34480418 144.08354341 -155.87109223 101.84474084 -129 66 C-128.6076416 65.46391113 -128.2152832 64.92782227 -127.81103516 64.37548828 C-102.66617735 30.15081356 -65.81573795 8.33186616 -24.0546875 1.3125 C-15.80833457 0.09332667 -8.53545204 0 0 0 Z " fill="#2F982F" transform="translate(1285,532)"/>
</svg>
