<svg version="1.1" id="Layer_1" xmlns="http://www.w3.org/2000/svg" x="0" y="0" xml:space="preserve" viewBox="30.4 163.4 798.4 204.6"><style>.st1{fill:#3fae2a}</style><path d="M408.4 271.1h-71.1v5.9c0 14.8 12 26.8 26.8 26.8h15.6v22.7c-10.6 5.4-22.5 9-32.4 9-29.3 0-52.3-22.5-52.3-51.8 0-29.1 22.7-51.5 52-51.5 16.1 0 33.1 7.1 45.4 18.4l18.9-24c1.2-1.6.9-3.9-.6-5.1-16.7-13.3-40.4-21.8-63.6-21.8-51.6 0-90.3 36.2-90.3 83.9 0 48 38.1 84.4 88.2 84.4 22.9 0 49.7-8.7 67.2-21.5v-71.8c-.2-2-1.8-3.6-3.8-3.6m-242.2-51.5-13.3 28.6c-17.5-10.4-38.3-17-51.6-17-12.5 0-21 4.5-21 13.5 0 30.5 88.2 13.5 88 73.1 0 32.4-28.1 49.9-64.8 49.9-27.2 0-54.4-10.4-73.1-26.3 11.6-11.6 33.5-16.1 48.9-10.5 8.7 3.1 17.3 4.9 24.7 4.9 15.4 0 24.6-5.7 24.6-15.8 0-31.2-88.2-13-88.2-71.6 0-30 25.8-48.9 64.1-48.9 22.1 0 44.3 6.5 60.7 16.5 1.1.5 1.6 2.2 1 3.6m28.3 145.6v-86.8c0-20.6 16.7-37.4 37.4-37.4v86.8c-.1 20.7-16.8 37.4-37.4 37.4" style="fill:#060e9f"></path><path class="st1" d="M194.5 238.9v39.5c0-20.6 16.7-37.4 37.4-37.4v-39.5c-20.7.1-37.4 16.8-37.4 37.4"></path><path style="fill:none;stroke:#000;stroke-width:.35;stroke-miterlimit:10" d="M493.8 201.6v163.6"></path><path class="st1" d="M806.8 339.4h5.4v25.8h-5.4zM778 201.6c.5.1.9.2 1.4.3.3.1.7.1 1.1.2-.1 1-.3 1.9-.4 2.8-.2 1.7-.4 3.4-.5 5.1-.2 2.8-.2 5.7-.4 8.6-.2 2.7-.5 5.4-.7 8.1-.4 4.3-1 8.6-1.8 12.8q-.9 4.95-2.1 9.9c-.4 1.9-.9 3.7-1.4 5.6 0 .2-.1.4-.1.7.3 0 .6-.1.8-.1 2.1-.5 4.1-1.1 6.2-1.5 3.6-.7 7.3-1.4 10.9-2.1 2.4-.4 4.7-.7 7.1-1 1.8-.2 3.5-.4 5.3-.6s3.6-.3 5.4-.5h1c2.3-.1 4.5-.1 6.8-.2s4.6-.2 6.9-.4c1.7-.1 3.3-.5 4.8-1.3.1 0 .2-.1.3-.1.2.4.1.9.1 1.3-.4 4.1-1.1 8.2-1.9 12.2-.5 2.9-1.3 5.7-2.3 8.5-1.3 3.5-3 6.7-5 9.8-3.4 5.3-7.5 10-12.1 14.2-4.9 4.5-10.2 8.3-15.9 11.7-7.4 4.4-15.2 8-23.2 10.9-6.3 2.3-12.8 4.2-19.4 5.7-4.6 1.1-9.3 2-14 2.7-3.3.5-6.6.9-9.9 1.3-2.2.3-4.4.5-6.7.6-1.7.1-3.5.2-5.2.3-2.2.1-4.3.1-6.5.2-.9 0-1.7.1-2.6.1-.5 0-1-.1-1.5-.2-.2 0-.4-.1-.5 0-1.1.3-2.2.2-3.3.2-1.4 0-2.8-.1-4.2-.1l-6.9-.3-4.5-.3c-1.8-.2-3.6-.3-5.5-.6-1.8-.2-3.6-.4-5.4-.7-2.1-.3-4.2-.6-6.3-1-5.3-.9-10.5-2-15.6-3.4-3-.8-6-1.7-9.1-2.7-4.9-1.5-9.8-3.4-14.5-5.5-4-1.8-7.9-3.8-11.8-5.9-3.7-2.1-7.3-4.4-10.8-7-4.4-3.3-8.5-6.9-12.2-11q-4.65-4.95-8.1-10.8c-2.5-4.3-4.5-8.7-5.7-13.5q-.9-4.05-1.5-8.1-.6-3-.9-6c-.1-.9-.3-1.8-.1-2.7.2 0 .3.1.4.1 1.7.8 3.5 1.1 5.3 1.3 3.5.3 7 .3 10.6.4 2.5.1 4.9.3 7.4.5 2.6.2 5.2.5 7.8.8 3 .4 6 .9 9.1 1.4 3.4.6 6.8 1.4 10.2 2.1 1.3.3 2.6.7 3.9 1 .3.1.6.1.9.2.3-.4.1-.7 0-.9-.5-1.9-1-3.8-1.4-5.6-.9-3.8-1.7-7.5-2.3-11.4l-1.5-10.5c-.3-2.7-.5-5.5-.7-8.3l-.3-5.1c-.2-3.7-.4-7.4-1-11.1v-.6c.6-.1 1.2-.2 1.7-.3.2 0 .4-.1.6-.2h2.7c.2.1.5.2.7.2 1.5.2 2.9.2 4.4.5 3.9.6 7.7 1.5 11.4 2.8 3.6 1.3 7.1 3 10.4 5 5.2 3.2 9.8 7 14.1 11.4q5.55 5.7 9.9 12.3 7.2 10.65 12 22.5c1.8 4.4 3.4 9 4.8 13.6q2.1 6.75 3.6 13.8c.6 2.8 1.1 5.6 1.6 8.3 0 .1.1.3.2.4h.1c.1-.3.1-.6.2-.9.2-.9.3-1.8.4-2.6.9-4.7 1.9-9.3 3.2-13.9 2.2-8.1 5-15.9 8.4-23.5q4.2-9.3 9.9-17.7c3.4-5 7.2-9.6 11.6-13.9 3.3-3.2 6.8-6.1 10.6-8.6 4.3-2.8 8.8-5.1 13.7-6.7 4.7-1.5 9.5-2.5 14.4-2.8.2 0 .4-.1.6-.2zm-193.3 55.2c0 .2-.1.3-.1.5 0 .5.1.9.2 1.4.8 5.6 2.8 10.9 5.7 15.8 2.9 4.8 6.4 9.1 10.5 13 4.5 4.3 9.5 8.1 14.9 11.3 4.2 2.6 8.5 4.8 13 6.9 3.6 1.6 7.3 3.1 11 4.4 5.9 2.1 11.9 3.8 18.1 5.2 3.8.9 7.7 1.6 11.6 2.2h.5s0-.1.1-.1c-.2-.2-.4-.4-.7-.6-4.9-3.5-9.3-7.7-13.3-12.3-3.4-3.9-6.5-8.1-9.2-12.6-2.7-4.4-5.2-9-7.3-13.7-2-4.3-3.7-8.8-5.3-13.3-.2-.4-.4-.7-.9-.8-2.6-.7-5.2-1.5-7.8-2.1-3.5-.8-6.9-1.5-10.4-2.2-2.7-.5-5.4-.9-8.1-1.3-1.8-.3-3.7-.5-5.5-.7-1.7-.2-3.5-.3-5.2-.4-2.9-.2-5.9-.3-8.8-.5-.6 0-1.3-.1-1.9-.1zm187-47h-.3c-.3 0-.5 0-.8.1-3 .4-6 1.1-8.8 2.1-3.8 1.3-7.4 3.2-10.8 5.4-4.4 2.9-8.3 6.2-11.8 10-3.3 3.5-6.2 7.3-8.9 11.2-2.8 4.1-5.2 8.4-7.4 12.9-1.6 3.2-3 6.4-4.3 9.7-2 5-3.7 10.2-5.1 15.4-1.5 5.4-2.7 10.9-3.6 16.4v.5s.1 0 .1.1l.5-.5c1.6-2.2 3.4-4.3 5.3-6.2 4.5-4.8 9.5-8.9 15-12.6 5.1-3.4 10.5-6.4 16-9 5.3-2.5 10.6-4.6 16.1-6.5 1.4-.5 1.2-.1 1.6-1.7 2.1-7.1 3.8-14.3 4.9-21.6.5-3.5 1-7.1 1.4-10.7.3-2.6.4-5.2.6-7.7.1-1 .1-2 .2-3.1 0-1.3.1-2.5.1-3.7.1-.2.1-.3 0-.5m-37.4 107.5c0 .1 0 .1.1.2h.5c1.5-.3 3-.5 4.4-.8 6.9-1.3 13.8-3 20.5-5.1 5.3-1.7 10.6-3.7 15.7-6 5.4-2.4 10.6-5.2 15.5-8.5 4.6-3 8.9-6.4 12.8-10.2 3-2.9 5.7-6 8-9.4 2.3-3.3 4.2-6.9 5.6-10.7 1.1-3 1.8-6 2.2-9.1.1-.8 0-.9-.8-.9h-.1c-1.5.1-3.1.1-4.6.2-1.2.1-2.5.1-3.7.2-2.4.2-4.8.4-7.1.6-2.4.2-4.7.5-7.1.9-3.6.5-7.1 1.2-10.7 1.8-4.9.9-9.8 2.2-14.6 3.6-.5.2-.8.4-.9.9-2.4 6.9-5.2 13.6-8.7 20.1q-2.7 4.95-5.7 9.6c-2.6 3.9-5.4 7.6-8.5 11-2.2 2.4-4.4 4.7-6.9 6.8-1.8 1.5-3.6 2.9-5.4 4.3zm-40-23.7.2-.1v-.6c-.6-3.8-1.4-7.5-2.3-11.3-1.3-5.4-2.9-10.8-4.8-16.1-2.1-5.9-4.5-11.6-7.4-17-3-5.7-6.5-11.2-10.5-16.2-3-3.7-6.2-7.1-9.8-10.2-4-3.4-8.2-6.3-13-8.4-4.1-1.9-8.4-3.1-12.9-3.7-.4-.1-.7 0-1.1-.1 0 .2-.1.3-.1.4v3c.1 1.9.2 3.9.3 5.8.1 1.4.2 2.9.3 4.3.2 2.2.5 4.4.8 6.6.3 2.6.7 5.2 1.2 7.7.6 3.3 1.3 6.7 2.1 10 .8 3.4 1.8 6.7 2.7 10 .1.5.4.7.8.9 1.1.3 2.2.7 3.2 1.1 4.8 1.7 9.6 3.7 14.2 5.9 5.9 2.8 11.5 6 16.8 9.8 3.5 2.5 6.8 5.1 9.9 8 3.2 3 6.2 6.2 8.8 9.8.3 0 .4.2.6.4m-50.7-26.1s-.1.1-.1.2c.1.2.2.5.3.7 1.2 2.8 2.4 5.7 3.7 8.5q3.9 8.25 9 15.6c2.4 3.5 5.1 6.8 8 9.9 2.5 2.7 5.3 5.2 8.2 7.4 3.6 2.8 7.5 5.1 11.8 6.9q5.4 2.25 11.1 3c.4.1.8 0 1.2.1v-.8c-.2-1.1-.3-2.3-.6-3.4-1.3-5.9-3.7-11.2-7.1-16.1-2.7-3.9-5.7-7.4-9.2-10.6-4.2-3.9-8.8-7.4-13.7-10.4-4.3-2.7-8.9-5.1-13.5-7.2-2.7-1.2-5.5-2.3-8.2-3.4-.4-.3-.6-.3-.9-.4m64.2 52.2h.5c.8-.1 1.6-.2 2.5-.3 6.4-1.1 12.2-3.6 17.6-7.2 4.3-2.8 8.2-6.2 11.7-9.9 4.2-4.5 7.9-9.4 11.1-14.6 3.1-4.9 5.7-10.1 8-15.5.6-1.3 1.1-2.6 1.6-4 .1-.2.3-.5.1-.8-.2 0-.4.1-.6.2-3.6 1.4-7.2 2.9-10.7 4.6-5.6 2.7-11 5.8-16.1 9.4-3.6 2.5-7 5.3-10.1 8.4-2.4 2.3-4.6 4.9-6.6 7.6-2.5 3.3-4.5 6.9-6.1 10.7-1.3 3.1-2.2 6.4-2.7 9.8-.2.5-.5 1-.2 1.6m-126.7 37c.2 1.3.5 2.2 1 2.8 1 1.1 2.6 1.7 4.9 1.7 1.4 0 2.5-.1 3.4-.4 1.6-.6 2.5-1.6 2.5-3.2q0-1.35-1.2-2.1c-.8-.5-2.1-.9-3.8-1.3l-3-.6c-2.9-.6-4.9-1.4-6-2.1-1.9-1.3-2.8-3.3-2.8-6 0-2.5.9-4.5 2.7-6.1s4.5-2.5 8-2.5c2.9 0 5.4.8 7.5 2.3s3.2 3.8 3.3 6.7h-5.5c-.1-1.7-.8-2.8-2.2-3.5-.9-.5-2.1-.7-3.4-.7q-2.25 0-3.6.9c-.9.6-1.4 1.4-1.4 2.5 0 1 .4 1.7 1.3 2.2.6.3 1.8.7 3.7 1.1l4.8 1.1c2.1.5 3.7 1.2 4.8 2 1.6 1.3 2.5 3.2 2.5 5.6 0 2.5-1 4.6-2.9 6.3s-4.7 2.5-8.2 2.5c-3.6 0-6.5-.8-8.6-2.5-2.1-1.6-3.1-3.9-3.1-6.8h5.3zm29.3-19h6.5l9.7 27.5h-6.2l-1.8-5.7h-10.1l-1.9 5.7h-6zm-.4 17.1h7l-3.5-10.8zm37.8-16.4c1 .4 1.9 1.1 2.6 1.9.6.7 1 1.5 1.4 2.3.3.9.5 1.8.5 2.9 0 1.3-.3 2.6-1 3.9s-1.7 2.2-3.3 2.7c1.3.5 2.2 1.2 2.7 2.2.5.9.8 2.4.8 4.3v1.8c0 1.3 0 2.1.1 2.6.2.7.5 1.2 1.1 1.6v.7h-6.3c-.2-.6-.3-1.1-.4-1.5-.1-.8-.2-1.6-.2-2.4v-2.6c0-1.8-.3-2.9-.9-3.5q-.9-.9-3.3-.9H636v10.8h-5.6v-27.5h13.2c1.7 0 3.2.2 4.2.7m-11.9 4v7.4h6.2c1.2 0 2.2-.2 2.8-.5 1.1-.5 1.6-1.6 1.6-3.1 0-1.7-.5-2.8-1.6-3.4-.6-.3-1.5-.5-2.7-.5h-6.3zm29.7-4.7h6.5l9.7 27.5h-6.2l-1.8-5.7h-10.1l-1.9 5.7h-6zm-.4 17.1h7l-3.5-10.8zm24.3 1.9c.2 1.3.5 2.2 1 2.8 1 1.1 2.6 1.7 4.9 1.7 1.4 0 2.5-.1 3.4-.4 1.6-.6 2.5-1.6 2.5-3.2q0-1.35-1.2-2.1c-.8-.5-2.1-.9-3.8-1.3l-3-.6c-2.9-.6-4.9-1.4-6-2.1-1.9-1.3-2.8-3.3-2.8-6 0-2.5.9-4.5 2.7-6.1s4.5-2.5 8-2.5c2.9 0 5.4.8 7.5 2.3s3.2 3.8 3.3 6.7h-5.5c-.1-1.7-.8-2.8-2.2-3.5-.9-.5-2.1-.7-3.4-.7q-2.25 0-3.6.9c-.9.6-1.4 1.4-1.4 2.5 0 1 .5 1.7 1.3 2.2.6.3 1.8.7 3.7 1.1l4.8 1.1c2.1.5 3.7 1.2 4.8 2 1.6 1.3 2.5 3.2 2.5 5.6 0 2.5-1 4.6-2.9 6.3s-4.7 2.5-8.2 2.5c-3.6 0-6.5-.8-8.6-2.5-2.1-1.6-3.1-3.9-3.1-6.8h5.3zm25.1-19 3.7 15.7.8 4.4.8-4.3 3.1-15.8h6l3.3 15.7.9 4.4.8-4.2 3.7-15.9h5.8l-7.7 27.5h-5.5l-3.3-16.1-1-5.3-1 5.3-3.3 16.1h-5.4l-7.8-27.5zm38.2 0h6.5l9.7 27.5h-6.2l-1.8-5.7h-10.1l-1.9 5.7h-6zm-.4 17.1h7L756 344zm20-17.1h6.1l10.9 19.2v-19.2h5.4v27.5H789l-11.2-19.5v19.5h-5.4z"></path><path class="st1" d="M820.2 337.7v4.8h-8.3v22.7h-5.8v-22.7h-8.2v-4.8zm2.9 0h5.7v27.5h-5.7zM629.8 163.8l6.2 16.5h-3.8l-1.2-3.7h-6.2l-1.3 3.7h-3.7l6.2-16.5zm.2 10.1-2.1-6-2.1 6zm18.9-10.1 3.9 11.3h.1l3.6-11.3h5.1v16.4h-3.4v-11.6l-4.1 11.6h-2.8l-4-11.5h-.1v11.5h-3.4v-16.4zm28.2 0v3h-8.7v3.5h8v2.9h-8v4h8.9v3h-12.5v-16.4zm7.7 0 3.9 11.3h.1l3.6-11.3h5.1v16.4h-3.4v-11.6l-4.1 11.6h-2.8l-4-11.5h-.1v11.5h-3.4v-16.4zm23.6 0c.8 0 1.5.1 2.2.2.6.1 1.2.4 1.7.7s.8.7 1.1 1.3c.3.5.4 1.2.4 1.9q0 1.2-.6 2.1c-.4.6-.9 1-1.7 1.4 1 .3 1.8.8 2.3 1.5s.7 1.6.7 2.6c0 .8-.2 1.6-.5 2.2s-.8 1.1-1.3 1.5-1.2.7-1.9.9-1.4.3-2.2.3h-8v-16.5h7.8zm-.4 6.6c.6 0 1.2-.2 1.6-.5q.6-.45.6-1.5c0-.4-.1-.7-.2-.9q-.15-.3-.6-.6c-.2-.1-.5-.2-.8-.3s-.6-.1-.9-.1h-3.4v3.9zm.2 7c.4 0 .7 0 1-.1l.9-.3c.2-.2.4-.4.6-.7.1-.3.2-.6.2-1.1 0-.8-.2-1.4-.7-1.8s-1.1-.5-1.9-.5h-3.9v4.5zm21.1-13.6v3h-8.7v3.5h8v2.9h-8v4h8.9v3h-12.6v-16.4zm11.5 0c.7 0 1.4.1 2 .4.6.2 1.1.6 1.5 1s.7.9 1 1.4q.3.75.3 1.8c0 1-.2 1.8-.6 2.5s-1.1 1.3-2 1.6c.5.1.8.3 1.1.6s.5.6.7.9.3.7.4 1.1.1.8.2 1.2v.9c0 .4 0 .7.1 1.1 0 .4.1.7.2 1s.2.6.4.8h-3.6c-.2-.5-.3-1.1-.4-1.9 0-.7-.1-1.4-.2-2.1-.1-.9-.4-1.5-.8-1.9s-1.1-.6-2-.6h-3.6v6.4h-3.6v-16.5h8.9zm-1.3 7.4c.8 0 1.5-.2 1.9-.6s.6-1 .6-1.8-.2-1.4-.6-1.7c-.4-.4-1-.5-1.9-.5h-4v4.6zm14.8.9c0-1.2.2-2.4.6-3.4s.9-2 1.6-2.8 1.5-1.4 2.5-1.8 2.1-.7 3.4-.7 2.4.2 3.4.7 1.8 1.1 2.5 1.8c.7.8 1.2 1.7 1.6 2.8s.6 2.2.6 3.4-.2 2.3-.6 3.4c-.4 1-.9 1.9-1.6 2.7s-1.5 1.4-2.5 1.8-2.1.7-3.4.7-2.4-.2-3.4-.7c-1-.4-1.9-1-2.5-1.8-.7-.8-1.2-1.7-1.6-2.7-.4-1.1-.6-2.2-.6-3.4m3.6 0c0 .7.1 1.4.2 2 .2.6.4 1.2.8 1.8.3.5.8.9 1.4 1.3.6.3 1.3.5 2.1.5s1.5-.2 2.1-.5 1-.7 1.4-1.3c.4-.5.6-1.1.8-1.8s.2-1.3.2-2-.1-1.4-.2-2.1c-.2-.7-.4-1.3-.8-1.8-.3-.5-.8-.9-1.4-1.3-.6-.3-1.3-.5-2.1-.5s-1.5.2-2.1.5-1 .7-1.4 1.3c-.4.5-.6 1.1-.8 1.8-.1.6-.2 1.3-.2 2.1m26.6-8.3v3h-7.9v3.8h6.9v2.8h-6.9v6.8h-3.7v-16.4z"></path></svg>