<svg xmlns="http://www.w3.org/2000/svg" xml:space="preserve" viewBox="24.4 214.6 793.2 200.9"><path d="M407.2 317.3h-71.8v6c0 15 12 26.9 26.9 26.9h15.9v22.9c-11 5.5-22.9 9-32.9 9-29.9 0-52.8-22.9-52.8-52.3s22.9-52.3 52.8-52.3c16.4 0 33.4 7 45.9 18.4l18.9-24.4c1.5-1.5 1-4-.5-5-16.9-13.5-40.9-21.9-64.3-21.9-52.3 0-91.7 36.9-91.7 85.2 0 48.8 38.4 85.7 89.2 85.7 23.4 0 50.3-9 67.8-21.9v-72.8c.6-2-1.4-3.5-3.4-3.5M162 264.9l-13.5 28.9c-17.9-10.5-38.9-17.4-52.3-17.4-12.5 0-21.4 4.5-21.4 13.5 0 30.9 89.2 13.5 89.2 73.8 0 32.9-28.4 50.3-65.8 50.3-27.4 0-55.3-10.5-73.8-26.4 12-12 33.9-16.4 49.3-10.5 9 3 17.4 5 24.9 5 15.5 0 24.9-6 24.9-15.9 0-31.4-89.2-13-89.2-72.8 0-30.4 25.9-49.3 64.8-49.3 22.4 0 44.9 6.5 61.3 16.9 2.1 1 2.6 2.9 1.6 3.9m28.9 147.6v-87.7c0-20.9 16.9-37.9 37.9-37.9v87.7c0 20.9-16.9 37.9-37.9 37.9" style="fill:#fff"></path><path d="M190.9 284.9v39.9c0-20.9 16.9-37.9 37.9-37.9V247c-20.9 0-37.9 16.9-37.9 37.9M769.1 247c.5 0 1 0 1.5.5h1c0 1-.5 2-.5 2.5 0 1.5-.5 3-.5 5 0 2.5 0 5.5-.5 8 0 2.5-.5 5-.5 7.5l-1.5 12c-.5 3-1.5 6.5-2 9.5-.5 2-1 3.5-1.5 5.5v.5h1l6-1.5c3.5-.5 7-1.5 10.5-2 2-.5 4.5-.5 6.5-1 1.5 0 3.5-.5 5-.5s3.5-.5 5-.5h7.5c2 0 4.5 0 6.5-.5 1.5 0 3-.5 4.5-1h.5v1.5c-.5 4-1 8-2 11.5-.5 3-1 5.5-2 8-1.5 3.5-3 6.5-4.5 9.5-3 5-7 9.5-11.5 13.5-4.5 4.5-9.5 8-15 11-7 4-14.5 7.5-21.9 10.5-6 2-12 4-18.4 5.5-4.5 1-9 2-13.5 2.5-3 .5-6.5 1-9.5 1-2 0-4 .5-6.5.5-1.5 0-3.5 0-5 .5h-10.5c-1 .5-2 0-3 0h-4c-2 0-4.5 0-6.5-.5-1.5 0-3 0-4.5-.5-1.5 0-3.5-.5-5-.5s-3.5-.5-5-.5c-2-.5-4-.5-6-1l-15-3c-3-1-6-1.5-8.5-2.5-4.5-1.5-9.5-3-14-5-4-1.5-7.5-3.5-11-5.5s-7-4-10.5-6.5c-4-3-8-6.5-11.5-10.5q-4.5-4.5-7.5-10.5c-2.5-4-4.5-8.5-5.5-13l-1.5-7.5c-.5-2-.5-4-1-5.5 0-1-.5-1.5 0-2.5h.5c1.5 1 3.5 1 5 1 3.5.5 6.5.5 10 .5 2.5 0 4.5.5 7 .5s5 .5 7.5 1c3 .5 6 1 8.5 1.5 3 .5 6.5 1.5 9.5 2 1 .5 2.5.5 3.5 1h1c.5-.5 0-.5 0-1-.5-2-1-3.5-1.5-5.5-1-3.5-1.5-7-2-11-.5-3.5-1-6.5-1.5-10-.5-2.5-.5-5-.5-8 0-1.5 0-3-.5-5 0-3.5-.5-7-1-10.5v-.5c.5 0 1 0 1.5-.5h3.5c1.5 0 3 0 4 .5 3.5.5 7.5 1.5 11 2.5 3.5 1.5 7 3 10 5 5 3 9.5 6.5 13.5 11 3.5 3.5 6.5 7.5 9.5 11.5 4.5 6.5 8.5 14 11.5 21.4 1.5 4 3.5 8.5 4.5 13 1.5 4.5 2.5 8.5 3.5 13 .5 2.5 1 5.5 1.5 8v.5-1c0-1 .5-1.5.5-2.5 1-4.5 2-9 3-13 2-7.5 4.5-15 8-22.4 2.5-6 6-11.5 9.5-16.9 3-5 7-9 11-13 3-3 6.5-6 10-8 4-2.5 8.5-5 13-6.5s9-2.5 13.5-2.5h4v-.6zm-183.4 52.3s-.5.5 0 0v2c1 5.5 2.5 10.5 5.5 15 2.5 4.5 6 8.5 10 12.5 4.5 4 9 7.5 14 11 4 2.5 8 4.5 12.5 6.5 3.5 1.5 7 3 10.5 4 5.5 2 11.5 3.5 16.9 5 3.5 1 7.5 1.5 11 2h.5l-.5-.5c-4.5-3.5-9-7.5-12.5-11.5l-9-12c-2.5-4-5-8.5-7-13-2-4-3.5-8.5-5-12.5 0-.5-.5-.5-1-1-2.5-.5-5-1.5-7.5-2-3.5-1-6.5-1.5-10-2-2.5-.5-5-1-7.5-1-1.5-.5-3.5-.5-5-.5s-3.5-.5-5-.5c-3 0-5.5-.5-8.5-.5h-2c.1-1-.4-1-.4-1m177.4-44.8s-.5 0 0 0h-1c-3 .5-5.5 1-8.5 2-3.5 1.5-7 3-10 5-4 2.5-8 6-11.5 9.5-3 3.5-6 7-8.5 10.5-2.5 4-5 8-7 12.5-1.5 3-3 6-4 9.5-2 5-3.5 9.5-5 14.5s-2.5 10.5-3.5 15.5v.5l.5-.5c1.5-2 3-4 5-6 4.5-4.5 9-8.5 14.5-12 5-3.5 10-6 15.5-8.5 5-2.5 10-4.5 15.5-6 1.5-.5 1 0 1.5-1.5 2-6.5 3.5-13.5 4.5-20.4.5-3.5 1-7 1.5-10 .5-2.5.5-5 .5-7.5zq0 .75 0 0m-35.4 102.2h.5c1.5 0 3-.5 4-.5 6.5-1 13-3 19.4-5 5-1.5 10-3.5 15-5.5 5-2.5 10-5 15-8 4.5-3 8.5-6 12-9.5q4.5-3.75 7.5-9c2-3 4-6.5 5.5-10 1-3 1.5-5.5 2-8.5 0-1 0-1-1-1h-8c-2.5 0-4.5.5-7 .5s-4.5.5-7 1c-3.5.5-7 1-10 2-4.5 1-9.5 2-14 3.5-.5 0-.5.5-1 1-2.5 6.5-5 13-8.5 18.9-1.5 3-3.5 6-5.5 9-2.5 3.5-5 7-8 10.5-2 2.5-4 4.5-6.5 6.5-1.5 1.5-3.5 3-5 4zm-38.4-22.5s.5 0 0 0v-.5c-.5-3.5-1.5-7-2-10.5-1-5-2.5-10.5-4.5-15.5-2-5.5-4.5-11-7-15.9-3-5.5-6-10.5-10-15.5-3-3.5-6-7-9.5-9.5-4-3-8-6-12.5-8-4-2-8-3-12.5-3.5h-1v3.5c0 2 0 3.5.5 5.5 0 1.5 0 3 .5 4 0 2 .5 4 .5 6.5.5 2.5.5 5 1 7.5.5 3 1 6.5 2 9.5s1.5 6.5 2.5 9.5c0 .5.5.5 1 1 1 .5 2 .5 3 1 4.5 1.5 9 3.5 13.5 5.5 5.5 2.5 11 5.5 15.9 9.5 3.5 2.5 6.5 5 9.5 7.5 3.7 1.4 6.7 4.4 9.1 8.4 0-.5 0 0 0 0m-47.8-24.9s0 .5 0 0v1c1 2.5 2.5 5.5 3.5 8 2.5 5 5.5 10 8.5 15 2.5 3.5 5 6.5 7.5 9.5 2.5 2.5 5 5 8 7 3.5 2.5 7 5 11 6.5q5.25 2.25 10.5 3h1v-.5c0-1-.5-2-.5-3.5-1-5.5-3.5-10.5-7-15.5-2.5-3.5-5.5-7-9-10-4-4-8.5-7-13-10-4-2.5-8.5-5-13-7-2.5-1-5-2-8-3.5 1 .5.5 0 .5 0m60.8 49.8s.5 0 0 0c1.5 0 2 0 3-.5 6-1 11.5-3.5 16.9-7 4-2.5 8-6 11-9.5 4-4.5 7.5-9 10.5-14 3-4.5 5.5-9.5 7.5-14.5.5-1.5 1-2.5 1.5-4 0 0 .5-.5 0-.5h-.5c-3.5 1.5-7 2.5-10 4.5-5.5 2.5-10.5 5.5-15.5 9-3.5 2.5-6.5 5-9.5 8-2.5 2-4.5 4.5-6.5 7-2.5 3-4.5 6.5-6 10-1.5 3-2 6-2.5 9.5.1 1 .1 1.5.1 2m-120.1 45.4c0 1 .5 2 1 2.5q1.5 1.5 4.5 1.5c1.5 0 2.5 0 3-.5 1.5-.5 2.5-1.5 2.5-3 0-1-.5-1.5-1-2-1-.5-2-1-3.5-1l-3-.5c-3-.5-4.5-1.5-6-2-2-1-2.5-3-2.5-5.5s1-4.5 2.5-6 4.5-2.5 7.5-2.5 5 .5 7 2 3 3.5 3 6.5h-5.5c0-1.5-1-2.5-2-3.5-1-.5-2-.5-3.5-.5s-2.5.5-3.5 1-1.5 1.5-1.5 2.5.5 1.5 1.5 2c.5.5 1.5.5 3.5 1l4.5 1c2 .5 3.5 1 4.5 2 1.5 1 2.5 3 2.5 5.5q0 3.75-3 6c-2 1.5-4.5 2.5-8 2.5s-6-1-8-2.5-3-3.5-3-6.5zm27.4-17.9h6l9.5 25.9h-6l-1.5-5.5h-9.5l-2 5.5h-5.5zm0 15.9h6.5l-3.5-10.5zm35.9-15.4c1 .5 2 1 2.5 2 .5.5 1 1.5 1.5 2 .5 1 .5 1.5.5 3 0 1-.5 2.5-1 3.5s-1.5 2-3 2.5c1 .5 2 1 2.5 2s1 2.5 1 4v4.5c0 .5.5 1 1 1.5v.5h-6c0-.5-.5-1-.5-1.5V406c0-1.5-.5-3-1-3.5s-1.5-1-3-1h-5.5V412H629v-25.9h12.5c1.5.5 3 .5 4 1M634 391v7h6c1 0 2 0 2.5-.5q1.5-.75 1.5-3t-1.5-3c-.5-.5-1.5-.5-2.5-.5zm28.4-4.4h6l9.5 25.9h-6l-1.5-5.5h-9.5l-2 5.5h-5.5zm-.5 15.9h6.5l-3.5-10.5zm23 2c0 1 .5 2 1 2.5q1.5 1.5 4.5 1.5c1.5 0 2.5 0 3-.5 1.5-.5 2.5-1.5 2.5-3 0-1-.5-1.5-1-2-1-.5-2-1-3.5-1l-3-.5c-3-.5-4.5-1.5-6-2-2-1-2.5-3-2.5-5.5s1-4.5 2.5-6 4.5-2.5 7.5-2.5 5 .5 7 2 3 3.5 3 6.5h-5.5c0-1.5-1-2.5-2-3.5-1-.5-2-.5-3.5-.5s-2.5.5-3.5 1-1.5 1.5-1.5 2.5.5 1.5 1.5 2c.5.5 1.5.5 3.5 1l4.5 1c2 .5 3.5 1 4.5 2 1.5 1 2.5 3 2.5 5.5q0 3.75-3 6c-2 1.5-4.5 2.5-8 2.5s-6-1-8-2.5-3-3.5-3-6.5zm23.9-17.9 3.5 14.9 1 4 .5-4 3-14.9h5.9l3 14.9.5 4 1-4 3.5-14.9h5.5l-7.5 25.9h-5l-3-15-.9-5.5-1 5.5-3 15h-5.5l-7.5-25.9zm36.4 0h6l9.5 25.9h-6l-1.5-5.5h-9.5l-2 5.5h-5.5zm-.5 15.9h6.5l-3.5-10.5zm18.9-15.9h6l10.5 17.9v-17.9h4.9v25.9h-5.4l-11-18.5v18.5h-5zm45.4 0v4.4h-7.5v21.5h-6V391H788v-4.4zm3 0h5.5v25.9H812zM627.5 215.1h3l6 15.5h-3l-1.5-4h-6l-1.5 4H622zm-1 9h4.5l-2.5-6.5zm17.5-9h3.5l4.5 12 4-12h3.9v15h-2.4v-11.5l-4.5 11.5h-2l-4.5-11.5v11.5H644zm18.9 0h11.5v2h-8.5v4h7.5v2.5h-7.5v4.5h8.5v2h-11.5zm14 0h3.5l4.5 12 4-12h3.9v15h-3v-11.5l-3.9 11.5h-2.5l-4-11.5v11.5h-2.5zm18.9 0h7.5c3 0 4.5 1.5 4.5 4 0 1.5-1 2.5-2 3.5 2 .5 3 2 3 4 0 2.5-1.5 4.5-5.5 4.5h-7v-15.9h-.5zm2.5 6.5h4.5c1.5 0 2.5-1 2.5-2 0-1.5-1-2-2.5-2h-4.5zm0 6.5h5c1.5 0 2.5-1 2.5-2.5s-1-2.5-2.5-2.5h-5zm12.5-13h11.4v2h-8.4v4h7.4v2.5h-7.4v4.5h8.4v2h-11.4zm13.9 0h7.5c3.5 0 5 1.5 5 4 0 3-2 3.5-2.5 4 1 0 2.5 1 2.5 3.5 0 2 .5 3.5 1 4h-3c-.5-.5-.5-1.5-.5-2.5 0-3-.5-4-3-4h-4v6.5h-2.5v-15.5zm2.5 7h4.5c1.5 0 2.5-1 2.5-2.5 0-2-1.5-2.5-2.5-2.5h-4.5zm32.4.5c0 4.5-3 8-7.5 8s-7.5-3.5-7.5-8 3-8 7.5-8c5 0 7.5 3.5 7.5 8m-11.9 0c0 3 1.5 6 4.5 6 3.5 0 4.5-3 4.5-6s-1.5-6-4.5-6-4.5 3-4.5 6m14.4-7.5h10.5v2h-8v4h7v2.5h-7v6.5h-2.5z" style="fill:#3fae2a"></path><path style="fill:none;stroke:#fff;stroke-width:.436;stroke-miterlimit:10" d="M494 247v165.5"></path></svg>